<svg xmlns="http://www.w3.org/2000/svg" viewBox="0 0 162.48 162.48"><defs><style>.cls-1{fill:#1d1d1b;fill-rule:evenodd;}</style></defs><title>instagramIcon</title><g id="Layer_2" data-name="Layer 2"><g id="Layer_1-2" data-name="Layer 1"><path class="cls-1" d="M39.76,81.21a41.48,41.48,0,1,1,41.45,41.51A41.55,41.55,0,0,1,39.76,81.21ZM124.08,0H38.4A38.49,38.49,0,0,0,0,38.46v85.62a38.56,38.56,0,0,0,38.4,38.4h85.68a38.5,38.5,0,0,0,38.4-38.4V38.46A38.43,38.43,0,0,0,124.08,0ZM38.4,9.6h85.68a28.83,28.83,0,0,1,28.8,28.86v85.62a28.81,28.81,0,0,1-28.8,28.8H38.4a28.84,28.84,0,0,1-28.8-28.8V38.46A28.85,28.85,0,0,1,38.4,9.6Zm94.21,12.06a8.47,8.47,0,1,0,8.43,8.5,8.5,8.5,0,0,0-8.43-8.5Zm1,59.55a52.4,52.4,0,1,0-52.38,52.34,52.43,52.43,0,0,0,52.38-52.34Z"/></g></g></svg>