<?xml version="1.0" encoding="utf-8"?>
<!-- Generator: Adobe Illustrator 23.0.3, SVG Export Plug-In . SVG Version: 6.00 Build 0)  -->
<svg version="1.1" id="Layer_1" xmlns="http://www.w3.org/2000/svg" xmlns:xlink="http://www.w3.org/1999/xlink" x="0px" y="0px"
	 viewBox="0 0 496.1 181.8" style="enable-background:new 0 0 496.1 181.8;" xml:space="preserve">
<style type="text/css">
	.st0{clip-path:url(#SVGID_2_);}
	.st1{clip-path:url(#SVGID_4_);}
	.st2{fill-rule:evenodd;clip-rule:evenodd;}
</style>
<title>logoCaminitoEdiciones</title>
<g>
	<g id="Layer_1-2">
		<g>
			<defs>
				<path id="SVGID_1_" d="M128.1,95c-1.4,7.6-6.5,14.6-9.6,15.5c-3.1-0.1-5.3-25.5-4.7-38.5c-2.5,0.3-5,0.4-7.5,0.4
					c-3.6-0.2-7.2-0.5-10.7-1.2c-3.3-0.6-6.4-1.7-9.6-2.5c-0.4-0.1-0.9-0.1-1.3,0.1c-3.5,2.7-7,5.3-10.3,8.3
					c-5.1,4.5-10,9.2-14.8,13.9c-2.8,2.7-5.3,5.8-8.1,8.5c-3.1,3.1-6.4,6-9.5,9.1c-23.4,18.2-37.7,8.6-40.5-10.4
					c-3.1-13.2-1.7-33.4,5.8-53.8c6.1-16.2,17.2-30,31.6-39.6c1.1-0.9,2.3-1.7,3.6-2.4c1.4-0.7,2.9-1.1,4.4-1.4
					c1.3-0.2,2.3,1.9,2.1,3.3c-2,6.2-29.9,23.3-35.4,64.3c-0.8,7.9-0.5,15.8,0.7,23.6c3.6,20,9.8,18.3,28.4,0.6
					c8.3-7.9,33.1-29,37.6-32.3c36.5-26.6,45.7-14.6,48.1,1.6C130,73.2,129.5,87.3,128.1,95z M113.3,54.4c-0.2-0.9-0.3-1.5-3.8-0.8
					C105.5,54.5,95,61,93.6,62s-1,1.4,1,1.9c1.6,0.4,3.2,0.7,4.8,0.9c4.4,0.6,8.8,0.6,13.2,0c0.3,0,0.9-0.4,0.9-0.7
					C114.1,60.8,114,57.6,113.3,54.4z M168.5,52.6c-1.5-13.4-6.6-4.6-7.7-1.5s-3.8,32.8-3.1,39.4c0.1,1.8,1,3.4,2.5,4.4
					c1.5,1.2,3.5,3.1,4.7,3.2c2.4,0,3-3.4,3.1-4.4c0.4-3.8,0.8-7.5,1.3-11.3c0.5-3.4,3.1-16.6,4.4-19.7c0.7-1.4,2-2.3,3.5-2.5
					c0.3,0,0.7,0.1,1,0.3c1.3,1.2,1.4,3.1,1.6,5c0.5,4.3,1,8.6,1.7,12.8c0.8,4.4,2.6,8.2,7.2,10c2,0.7,4.2,0.5,6-0.6
					c2.9-2,5.2-4.8,6.6-8.1c1.2-2.4,4-9.3,6.8-9.3c2.4,0.3,6.9,6.6,12.7,8.9c1.4,0.5,2.9,0.8,4.5,0.9c3.3-0.2,6.5-2.8,9.2-4.2
					c1.6-0.8,3-1.9,4.6-2.6c0.8-0.4,4-0.8,5.5,0c2.9,1.6,8.9,4.5,13.3,2.6c0.5-0.5,1.8-0.7,1.6-1.5s-3.3-1.1-4.2-1.1
					c-1.9,0-3.6-2.2-5.1-3.2c-2.4-1.5-3.6-2.6-6.4-2.9c-3.5-0.3-6.5,1.4-9.6,2.8c-1.6,0.9-3.4,1.6-5.1,2.2c-3.1,1-6.4,0.5-9-1.5
					c-1.9-1.4-3.7-4.7-5.6-6.1c-1.2-1-2.7-1.8-4.3-2.2c-3.6-0.7-7.4,0.5-9.8,3.3c-2.3,2.8-6,11.1-7.2,12.1c-2.4,1.9-3.6-2.4-3.8-3.7
					c-0.5-5-0.1-8.1-1.4-13c-0.6-2.5-3.6-11-10.8-9.2c-4.3,0.7-7.5,4.6-8.9,5.7C168.5,55.6,168.4,54.1,168.5,52.6z M253,40.4
					c0.1,2.6,1.7,3.2,2.4,4c0.7,0.8,10.7,1.7,8.6-4.7C261.4,32.4,252.9,37.8,253,40.4z"/>
			</defs>
			<clipPath id="SVGID_2_">
				<use xlink:href="#SVGID_1_"  style="overflow:visible;"/>
			</clipPath>
			<g class="st0">
				
					<image style="overflow:visible;enable-background:new    ;" width="500" height="695" xlink:href="24EF4704.png"  transform="matrix(1.44 0 0 1.44 -181.2896 -375.9771)">
				</image>
			</g>
		</g>
		<g>
			<defs>
				<path id="SVGID_3_" d="M305,38.7c-0.5,3.1,0,2.7-0.7,6.3c3-3.9,6.9-7,11.3-9.2c3-1.8,6.3-2.8,9.7-3c2.2-0.1,5.5,2.5,6.3,4.6
					c2.6,6.9,3.5,14,4.2,21.3c0.9,9.5,1.9,19.1,5.7,28.1c1,2.3,3.3,4.9,5.9,4.9c4,0,8.8-6.9,10.5-10c2.3-4,3.2-7.1,5.5-11.1
					c1-1.7,1.5-2.8,2.2-3.3c0.5-0.4,1.6-0.6,1.5,0.7c-0.1,2.4-1.5,7.7-2.1,9.8c-4.6,17.2-17.3,28.3-28,19.4
					c-2.6-2.2-5.9-9.1-6.6-12.4c-1.1-5.2-2-10.5-2.6-15.7c-0.6-5.5-0.7-11.1-1.2-16.7c-0.3-3.2-0.9-6.3-1.8-9.4
					c-0.5-1.8-3.6-5.9-15.8,7.1c-3.8,3.8-6.3,8.7-7,14c-0.4,3.7-5.3,49.5-8.3,52.5s-10.4-3.7-10.4-13.5c0-3.9,7-32.3,8.3-38.3
					c1.3-5.9,2.3-11.8,3.5-17.7c0.9-4.3,3-14.4,4.4-19.6C299.9,26.5,307.6,24.2,305,38.7z M404.5,19.9c-2.7,6.3-4.1,12-6.5,18.3
					c-18.3,55.9,8.7,71.8,15.2,75.4c16.8,6.9,35.7,6.2,51.8-2c7.8-3.9,37.3-18.5,27.2-51c-3.4-10.9-14.7-14.8-29.2-5.3
					c-39,25.3,9.3,47.9,12.9,25c0.5-3.3,0.5-5.9-4.8-10.4c-2.2-1.8-7.1,0.6-5.6,2.7c1,1.5,2.3,2,3.2,4.8c1.2,4-2.1,6.1-7.5,3.4
					c-6.4-3.2-2.8-10.4-2.2-11.5c1.1-1.8,3.9-8.2,12.6-10.6c15-4.1,20.2,14.6,9,30.2c-3.8,5.5-13.1,12.7-17.3,15
					c-16.1,8.9-29,7.7-40.7,2.2c-17.2-8.1-20.6-39.4-6.2-71.9c0.6-1.5,1.3-2.1,3-2.2c3.6-0.1,7.3-0.3,10.9-0.7
					c7.1-0.7,14.2-1.7,21.4-2.3c5.1-0.4,10.3-0.5,15.5-0.6c6-0.2,12,0.7,17.7,2.6c0.9,0.3,1.7,0.5,2.6,0.6c1,0.1,1.8-0.1,2.2-1.6
					c-1.2-0.9-2.6-1.8-4-2.4c-7.2-2.6-14.6-5.1-22.2-6.1c-7.1-0.9-14.3-1-21.4-0.5c-6.1,0.4-12.1,1.5-18.1,2.2
					c-0.7,0.1-1.5,0.1-2.5,0.2c0.8-1.9,2.6-8.9,3.8-10.7c0.6-1,0.2-1.6-0.8-2.6c-2.7-2.8-12-3.2-13.3-1.8S405.8,16.9,404.5,19.9z
					 M375.2,36.9c-1.8-4.5-8.8-2.7-6.9,3C369.8,44.4,377.1,41.6,375.2,36.9L375.2,36.9z"/>
			</defs>
			<clipPath id="SVGID_4_">
				<use xlink:href="#SVGID_3_"  style="overflow:visible;"/>
			</clipPath>
			<g class="st1">
				
					<image style="overflow:visible;enable-background:new    ;" width="499" height="694" xlink:href="24EF4705.png"  transform="matrix(1.4329 0 0 1.4329 -180.3296 -375.6815)">
				</image>
			</g>
		</g>
		<path class="st2" d="M149.1,161c0.5-1.3,0.6-2.2-0.8-3c-0.4-0.4-0.6-0.9-0.5-1.4c0.7-2.1,1.9-3.1,4-2.7c1.7,0.2,3.2,1.2,4.1,2.7
			c0.8,1.5,1.5,3.1,2.1,4.7c0.7,3.3,0.8,6.7,0.3,10c-0.4,2.9-2.3,5-4.3,7c-0.7,0.7-1.5,1.5-2.1,2.3c-0.8,1.2-2.3,1.6-3.6,1
			c-0.4-0.3-0.7-0.8-0.8-1.3C147,178.2,147.5,165.2,149.1,161z M152.2,159.1c-0.6,5-1.3,9.9-1.9,14.8
			C153.9,170.8,155.1,160.3,152.2,159.1z"/>
		<path class="st2" d="M115.3,154.7c0.5-0.4,11.4-1.3,12.1-0.1c0.8,1.1,0.5,2.6-0.6,3.3c-0.1,0-0.1,0.1-0.2,0.1
			c-0.5,0.4-2.8,0.1-3.8,0.7c-0.6,0.4-0.7,2.5-0.1,2.7c0.9,0.3,1.1,0.1,1.5,0.6c0.4,0.8,0.5,1.8,0.2,2.7c-0.3,1.5-1.9,1.8-3.2,2
			c-0.8,0.1-1,0.6-0.9,1.3c0,0.3,0,0.6,0,0.9c0,2.8,0.4,3.2,3.2,3.3c2.5,0.1,3.3-0.4,2,2.7c-0.4,0.9-8.5,4.6-10.8-3.4
			c-0.1-0.4-0.6-3.5-0.7-3.8C113.8,164.2,115.1,154.6,115.3,154.7z"/>
		<path class="st2" d="M296.5,178.7c-5.3,0.6,0.3-12.3,0.3-12.3s1.9-4.4,2.1-4.6c0.7-0.6,1.7-0.7,2.6-0.5c0.9,0.3,4.7,11.1,5.8,11.2
			s4.2-9,6.5-11.9c0.9-1.1,3.2-1.5,2.2,1.8c-0.3,1-5.1,15.7-8.3,16.3s-6.9-6.1-7.7-6.1S297.5,178.6,296.5,178.7z"/>
		<path class="st2" d="M263.2,171.8c-0.6-1.2-0.6-2.7,0-3.9c0.4-1.2,1.5-5.6,3.1-6.4c5.6-2.9,11.9,2.1,11.3,6.2
			c-0.6,2.5-3.6,6.7-4.3,7.5C269.1,178.6,263.8,172.8,263.2,171.8z M267.8,170.7c1.7,0.6,4.1-0.6,3.8-2.7c-0.2-1.2-0.4-2-2.1-1.9
			S266.7,170.3,267.8,170.7z"/>
		<path class="st2" d="M334.9,176.5c-0.3-2.2,0.3-12.3,0.7-13.7c0.3-1.2,0.8-2.4,1.4-3.5c0.4-0.5,4.4-0.6,6.4-0.8s5.6,0.7,5.6,1.5
			s-1.3,2.9-3.2,3.4s-2.8,0-3.9,0.1s-0.9,1.7-0.8,1.9c2.3,0.8,2,0.9,1.7,4s-4.2,1.7-4.2,2.7c0,0.4-0.3,2.2,0.1,2.8
			c0.6,0.9,2.2,0.8,2.7,1.2c0.8,0.6,1.3,1.5,1.5,2.5C343.1,181.4,335.6,180.2,334.9,176.5z"/>
		<path class="st2" d="M223.6,157.3c0.3,1.2-0.2,2.4-1.1,3.2c-5.3,4.5-5.9,10-5.3,11.1c1.2,2,4.5,0.8,5.2,3c0.3,1-2.1,3.5-4.3,3.9
			c-3,0.6-7.1-5.5-7.3-7.2c-0.2-2,0.3-3.9,1.4-5.6C217.2,157.6,223.3,156,223.6,157.3z"/>
		<path class="st2" d="M189,154.3c0.9,0.2,1.2,3,1.2,4.4c0.2,3.1,0.1,6.2-0.3,9.2c-0.4,2.1-1.1,4.2-2,6.2c-0.6,1.6-3,2.5-4.4,1.7
			c-0.6-0.4-1-1-1-1.8c0.4-2.6,1.1-5.1,1.7-7.6c0.8-3.3,1.7-6.6,2.4-9.9C186.9,155.2,188.1,154.2,189,154.3z"/>
		<path class="st2" d="M187.2,147.5c-3.2,2-5.7-1.9-5-3.8c0.1-0.4,0.4-0.9,0.7-1c0.7-0.3,1.6-0.8,2.2-0.5S190.5,145.5,187.2,147.5z"
			/>
		<path class="st2" d="M243.1,174.5c-0.6,0.3-1.6-0.1-2.2-0.5c-0.9-0.5-1.5-1.6-1.3-2.6c0.1-1,0.3-1.9,0.7-2.8
			c0.9-2.5,2.1-7.2,3.5-7.2C245.4,161.4,243.7,174.2,243.1,174.5z"/>
		<path class="st2" d="M242.8,144.7c-0.2-0.4-0.4-0.8-0.6-1.2c-0.6-0.8-0.4-2,0.4-2.6c0.2-0.2,0.5-0.3,0.8-0.3
			c0.8-0.1,1.6,0,2.3,0.2c0.2,0,0.4,0.5,0.4,0.8c0.1,0.8,0.1,1.6,0,2.4c-0.1,0.6-0.3,1.1-0.6,1.6
			C245.5,145.7,243.2,145.9,242.8,144.7z"/>
		<path class="st2" d="M373.8,157.6c3.2,0.5,2.1,2,1.5,2.8c-1,1.5-5.1,0.4-4.8,5.9c-0.4,7.6,0.2,13.8-2.7,14.3
			c-6.4,1-5.6-2.7-5.4-3.1c0.9-2.3,3.2,0.4,3.8-2c0.5-2,0-7.8,0.3-9.8c0.1-1.3,0.3-2.6,0.6-3.9C367.5,159.3,370.6,157.1,373.8,157.6
			z"/>
	</g>
</g>
</svg>
