<svg xmlns="http://www.w3.org/2000/svg" viewBox="0 0 220.31 220.31"><defs><style>.cls-1{fill:#fff;}</style></defs><title>Asset 1</title><g id="Layer_2" data-name="Layer 2"><g id="Layer_1-2" data-name="Layer 1"><path class="cls-1" d="M110.16,220.31A110.16,110.16,0,1,1,220.31,110.15,110.29,110.29,0,0,1,110.16,220.31Zm0-206.25a96.09,96.09,0,1,0,96.08,96.09A96.21,96.21,0,0,0,110.16,14.06Z"/><path class="cls-1" d="M85.1,146c-7.86,7.27-4,15.53,0,17.09,7.45,2.94,67.14-43.76,67.19-51.44.07-10.25-55.77-46.81-67.19-51.44-4.59-1.86-10.59,11.66,0,19.81,5.6,4.31,43.09,33,43.09,33S95.06,136.82,85.1,146Z"/></g></g></svg>